<?xml version="1.0" encoding="UTF-8" standalone="no"?>
<!-- Created with Inkscape (http://www.inkscape.org/) -->

<svg
   xmlns:dc="http://purl.org/dc/elements/1.1/"
   xmlns:cc="http://creativecommons.org/ns#"
   xmlns:rdf="http://www.w3.org/1999/02/22-rdf-syntax-ns#"
   xmlns:svg="http://www.w3.org/2000/svg"
   xmlns="http://www.w3.org/2000/svg"
   version="1.1"
   width="180"
   height="72"
   viewBox="0 0 300.57709 120.05206"
   id="svg2"
   xml:space="preserve"><metadata
     id="metadata8"><rdf:RDF><cc:Work
         rdf:about=""><dc:format>image/svg+xml</dc:format><dc:type
           rdf:resource="http://purl.org/dc/dcmitype/StillImage" /><dc:title></dc:title></cc:Work></rdf:RDF></metadata><defs
     id="defs6"><clipPath
       id="clipPath20"><path
         d="m 1286.59,0.0117188 h 975.301 V 949.73872 H 1286.59 z"
         id="path18" /></clipPath><clipPath
       id="clipPath36"><path
         d="M 0,0 H 2261.9 V 949.738 H 0 V 0"
         id="path34" /></clipPath></defs><path
     d="M 186.12922,115.33175 H 296.5771 V 4.8828265 H 186.12922 z"
     id="path22"
     style="fill:#00458c;fill-opacity:1;fill-rule:nonzero;stroke:none" /><path
     d="M 252.92922,3.9999995 V 60.726532 l 30.748,-11.507733 V 4.1614665"
     id="path24"
     style="fill:#ffffff;fill-opacity:1;fill-rule:nonzero;stroke:none" /><path
     d="m 199.38255,24.778666 v 56.726532 l 23.504,-9.190133 V 13.4688 l -23.504,11.309866"
     id="path26"
     style="fill:#ffffff;fill-opacity:1;fill-rule:nonzero;stroke:none" /><path
     d="m 224.82922,73.025999 18.38,-5.997334 v 48.773395 h -18.38 V 73.025999"
     id="path28"
     style="fill:#ffffff;fill-opacity:1;fill-rule:nonzero;stroke:none" /><path
     d="M 6.618749,76.237998 H 4 V 112.0479 c 0,2.18749 1.221874,4.00416 4.889069,4.00416 3.666666,0 4.83124,-1.72291 4.83124,-3.86457 V 76.237998 h -2.619787 v 36.833342 c 0,1.025 -0.756253,1.95572 -2.211453,1.95572 -1.513547,0 -2.27032,-0.88385 -2.27032,-1.90885 z m 18.917679,26.821862 v 10.05835 c 0,1.025 -0.697866,1.86354 -2.211999,1.90885 -1.454667,0 -2.3864,-0.93072 -2.3864,-1.95572 V 79.497332 c 0,-1.209867 0.349466,-2.561467 2.3864,-2.561467 2.095866,0.04747 2.211999,1.397467 2.211999,2.561467 v 8.7084 h 2.619867 v -7.450534 c 0,-2.375066 -0.2912,-4.75 -4.831866,-4.75 -4.656667,0 -5.005734,2.374934 -5.005734,4.796934 v 31.385358 c 0,2.14166 1.338534,3.86457 5.005734,3.86457 3.667733,0 4.831866,-1.81667 4.831866,-4.00416 v -8.98804 z m 23.980267,8.2422 v -7.4958 c 0,-2.04947 -0.348934,-2.84173 -0.9308,-4.610926 -0.5244,-1.67614 -1.455734,-3.16667 -1.979067,-4.23707 l -2.4448,-4.471333 c -0.8152,-1.4896 -1.164133,-2.420799 -1.5136,-3.957199 -0.348933,-1.723467 -0.407867,-2.794267 -0.407867,-4.471467 0,-0.09213 0,-0.139067 0,-0.231733 v -2.3292 c 0,-1.164 0.233334,-2.514 2.387067,-2.561467 1.9792,0 2.269733,1.3516 2.269733,2.561467 v 8.614666 h 2.619334 v -7.309866 c 0,-2.375067 -0.2912,-4.796934 -4.947467,-4.796934 -4.54,0 -4.8896,2.374934 -4.8896,4.75 v 1.9088 c 0,1.677067 0,2.700534 0.3496,4.3308 0.348933,1.677067 0.64,2.654667 1.512933,4.191067 l 2.560934,4.703729 c 0.9896,1.7692 1.630266,2.79427 2.153733,4.702536 0.35,1.2584 0.640533,2.0032 0.640533,3.30626 v 8.61462 c 0,1.16405 -0.116133,2.56093 -2.269733,2.60781 -1.9792,0 -2.387067,-1.35 -2.387067,-2.60781 v -9.45315 h -2.560933 v 8.19689 c 0,2.42031 0.3496,4.79531 5.005733,4.79531 4.540134,-0.0469 4.831334,-2.375 4.831334,-4.75 z M 56.850561,93.886394 V 79.497332 c 0,-1.209867 0.348933,-2.561467 2.328133,-2.561467 2.1536,0.04747 2.270267,1.397467 2.270267,2.561467 v 14.389062 z m 7.159866,-13.131196 c 0,-2.375066 -0.233333,-4.75 -4.772933,-4.75 -4.6568,0 -5.005733,2.374934 -5.005733,4.796934 v 34.971288 h 2.6188 V 95.469734 h 4.5984 v 20.303686 h 2.561466 z m 7.274934,-4.564 h -2.328134 v 39.582222 h 2.561467 V 86.994798 l 4.6568,21.234392 v 7.54423 H 78.73696 V 76.191198 h -2.561466 v 23.934792 z m 21.304262,0.0468 H 82.403627 v 1.444267 h 3.725067 v 38.091155 h 2.6192 V 77.682265 h 3.841729 z m 6.34374,17.648396 V 79.497332 c 0,-1.209867 0.34946,-2.561467 2.328657,-2.561467 2.1536,0.04747 2.27027,1.397467 2.27027,2.561467 v 14.389062 z m 7.160407,-13.131196 c 0,-2.375066 -0.23334,-4.75 -4.77348,-4.75 -4.656267,0 -5.006267,2.374934 -5.006267,4.796934 v 34.971288 h 2.61934 V 95.469734 h 4.598927 v 20.303686 h 2.56147 z m 18.50825,22.304662 v 10.05835 c 0,1.025 -0.69839,1.86354 -2.21145,1.90885 -1.4552,0 -2.38694,-0.93072 -2.38694,-1.95572 V 79.497332 c 0,-1.209867 0.34894,-2.561467 2.38694,-2.561467 2.0948,0.04747 2.21145,1.397467 2.21145,2.561467 v 8.7084 h 2.61987 v -7.450534 c 0,-2.375066 -0.2912,-4.75 -4.83133,-4.75 -4.6572,0 -5.00614,2.374934 -5.00614,4.796934 v 31.385358 c 0,2.14166 1.33854,3.86457 5.00614,3.86457 3.66666,0 4.83133,-1.81667 4.83133,-4.00416 v -8.98804 z m 14.90187,-23.096395 v 10.5704 c 0,1.071866 -0.23333,2.328129 -0.64133,2.747329 -0.46534,0.55894 -1.572,1.02507 -2.6772,1.02507 h -1.2228 V 77.355732 h 1.57186 c 0.75614,0 1.45614,0.185866 1.92147,0.3724 0.87333,0.373466 1.048,1.118266 1.048,2.235333 z m 2.61867,35.809955 V 99.61453 c 0,-0.23334 0,-0.466136 0,-0.699466 0,-1.06973 -0.0573,-2.00107 -0.98934,-2.93333 -0.524,-0.60414 -1.68799,-1.20934 -1.804,-1.2568 0.11601,-0.0463 1.57068,-0.7448 2.15334,-1.49054 0.524,-0.65106 0.64,-1.16413 0.64,-1.908929 v -10.2448 c 0,-0.09267 0,-0.231733 0,-0.325467 0,-1.397333 0,-2.6084 -1.28,-3.492133 -1.22267,-0.885467 -3.144,-0.978133 -3.84254,-0.978133 -0.17453,0 -0.2912,0 -0.2912,0 h -4.36506 v 39.488488 h 2.6188 V 95.423464 h 1.16453 c 0.98907,0 1.57147,0.14 2.38747,0.69893 0.81466,0.512 0.98933,1.72294 0.98933,2.8864 v 16.764626 z m 7.21734,-39.535422 h -2.61868 V 112.0479 c 0,2.18749 1.22134,4.00416 4.88934,4.00416 3.66667,0 4.83066,-1.72291 4.83066,-3.86457 V 76.237998 h -2.61866 v 36.833342 c 0,1.025 -0.75734,1.95572 -2.212,1.95572 -1.51334,0 -2.27066,-0.88385 -2.27066,-1.90885 z m 11.70132,39.535422 h 9.66134 v -1.63021 h -6.46134 l 6.112,-37.952012 h -8.848 v 1.491067 h 5.648 l -6.112,38.091155"
     id="path38"
     style="fill:#f9b20d;fill-opacity:1;fill-rule:nonzero;stroke:none" /><path
     d="M 76.291627,4.1978665 V 30.352533 h 8.038 c 3.019867,0 4.470933,-0.3124 5.921466,-1.2536 1.92187,-1.2552 2.98067,-3.411467 2.98067,-5.960933 0,-2 -0.6276,-3.725467 -1.80414,-4.9416 -0.82346,-0.822933 -1.3724,-1.136533 -2.901596,-1.606267 2.744796,-1.058933 3.920796,-2.785466 3.920796,-5.7256 0,-2.4713335 -1.05826,-4.7057335 -2.6656,-5.6473335 C 88.40776,4.3942665 87.467227,4.1978665 84.21256,4.1978665 z M 80.52656,15.059867 V 7.5702665 h 3.176534 c 2.979733,0 4.274,1.097467 4.274,3.6865335 0,2.705733 -1.3724,3.803067 -4.705734,3.803067 z m 0,11.842266 V 18.3932 h 3.1364 c 1.843334,0 2.745867,0.236 3.5688,0.822933 1.019334,0.7464 1.5688,1.960934 1.5688,3.490667 0,2.7448 -1.646933,4.195333 -4.7844,4.195333 z m 20.54733,-10.4308 c 0.3928,-2.039066 1.412,-2.980666 3.1376,-2.980666 2.03907,0 2.8624,1.177066 2.8624,4.157733 v 0.783867 c -0.3916,-0.03907 -0.66667,-0.03907 -0.86239,-0.03907 -4.19588,0 -6.940677,0.902667 -8.353207,2.705733 -0.8624,1.097467 -1.33333,2.588533 -1.33333,4.156267 0,3.411466 2.11826,5.5688 5.412527,5.5688 1.60733,0 2.94067,-0.510534 3.95987,-1.529734 0.54893,-0.509333 0.86307,-0.9808 1.49067,-2.156266 0,1.764133 0.0391,2.195333 0.274,3.214533 h 3.726 c -0.27506,-1.175467 -0.31414,-1.8812 -0.31414,-5.331733 v -6.588533 c 0,-2.7448 -0.1176,-3.803067 -0.58853,-4.862 -0.31347,-0.7448 -0.90147,-1.3724 -1.68587,-1.8828 -1.17653,-0.7448 -2.54893,-1.1364 -4.27453,-1.1364 -4.03907,0 -6.666667,1.960933 -7.293197,5.45 z m 6,4.471334 V 21.8828 c 0,3.529733 -1.56813,6 -3.80413,6 -1.64627,0 -2.58747,-1.0588 -2.58747,-2.901067 0,-2.746266 1.76453,-4.118666 5.21507,-4.118666 0.31414,0 0.588,0 1.17653,0.0796 z M 127.19056,15.5312 c -0.94159,-3.333333 -2.98067,-4.980133 -6.2348,-4.980133 -3.7256,0 -6.4708,2.547866 -6.4708,5.959333 0,1.490667 0.6276,2.902133 1.6864,3.804667 0.98026,0.862 1.88226,1.294266 4.3916,2.078133 1.37293,0.4308 1.96093,0.666666 2.47094,1.0584 0.6276,0.470266 0.94106,1.097866 0.94106,1.8828 0,1.528666 -1.17599,2.5484 -3.0192,2.5484 -2.07919,0 -3.29427,-1.0588 -3.7256,-3.333334 l -3.41187,0.666667 c 0.39267,2.039067 0.78428,2.824 1.80413,3.804667 1.2552,1.136533 3.05827,1.8032 5.17654,1.8032 4.19586,0 7.09733,-2.510534 7.09733,-6.1172 0,-1.607867 -0.70573,-3.097467 -1.88227,-4 -0.94106,-0.744267 -1.76506,-1.138 -3.84266,-1.8032 -2.15734,-0.7072 -2.35307,-0.785333 -2.90214,-1.177067 -0.6276,-0.392133 -0.98013,-1.0588 -0.98013,-1.8828 0,-1.3724 1.05827,-2.353066 2.50987,-2.353066 1.60733,0 2.58746,0.863466 3.25413,2.902533 z M 130.91563,4.1978665 V 30.352533 h 3.99946 V 24.1964 l 2.5888,-3.528667 3.844,9.6848 h 4.312 l -5.568,-12.665066 5.02,-6.666667 h -3.96133 l -6.23547,8.6276 V 4.1978665 z M 147.62122,11.0208 v 19.331733 h 4 V 11.0208 z m 4.07867,-2.5885335 v -4.273467 h -4.196 v 4.273467 z m 4.62667,2.5885335 v 19.331733 h 4 v -10.8228 c 0,-1.8032 0.0387,-2.4308 0.27466,-3.2928 0.156,-0.549466 0.352,-1.0192 0.66667,-1.452 0.46934,-0.666666 1.25468,-1.019333 2.19468,-1.019333 1.25466,0 1.96133,0.549467 2.156,1.725067 0.11866,0.666666 0.15733,1.216133 0.15733,2.6276 v 12.234266 h 4 V 17.8828 c 0,-2.2344 -0.0387,-2.9792 -0.27467,-3.920267 -0.156,-0.7448 -0.50933,-1.450533 -1.01866,-2 -0.864,-0.941733 -2.11735,-1.411466 -3.648,-1.411466 -2.392,0 -3.80267,0.980133 -4.82267,3.45 V 11.0208 h -3.68533"
     id="path40"
     style="fill:#00458c;fill-opacity:1;fill-rule:nonzero;stroke:none" /><path
     d="m 4.767188,36.058266 v 26.156266 h 15.136974 v -3.5296 H 9.080722 v -8.195333 h 8.35264 v -3.450533 h -8.35264 v -7.4896 h 10.66664 v -3.4912 z m 17.881241,6.824533 v 19.331733 h 3.999999 V 51.391599 c 0,-1.804667 0.03907,-2.430666 0.274534,-3.294266 0.156666,-0.549467 0.353066,-1.0192 0.666666,-1.450534 0.470267,-0.666666 1.254667,-1.0192 2.195734,-1.0192 1.2548,0 1.960533,0.547867 2.156266,1.724934 0.118267,0.666666 0.157334,1.2152 0.157334,2.627599 v 12.2344 h 4 V 49.744799 c 0,-2.236 -0.03907,-2.9808 -0.275067,-3.921866 -0.156133,-0.7448 -0.509867,-1.450534 -1.0192,-2 -0.863067,-0.940134 -2.1172,-1.411467 -3.646933,-1.411467 -2.3916,0 -3.8036,0.980133 -4.823334,3.450533 v -2.9792 z m 33.057332,-3.098933 c -0.588533,-0.07813 -0.824,-0.07813 -1.2156,-0.07813 -2.195867,0 -3.1376,0.902 -3.568267,3.568666 -1.530266,-0.7056 -2.196933,-0.862933 -3.686533,-0.862933 -4.039066,0 -6.784266,2.588533 -6.784266,6.352533 0,2.275067 0.706133,3.647467 2.509866,4.941733 -2,1.0192 -2.863066,2.195334 -2.863066,3.8812 0,1.3724 0.588533,2.275067 2.118266,3.177067 -2,0.705733 -2.824,1.8428 -2.824,3.7256 0,3.175466 2.7448,4.862 7.764667,4.862 5.724933,0 8.8228,-2.1172 8.8228,-6 0,-2.3532 -1.097867,-3.96 -3.097867,-4.5876 -1.215067,-0.352533 -1.646933,-0.432267 -4.469733,-0.588533 l -2.039067,-0.1172 c -2.078666,-0.118134 -2.823466,-0.5104 -2.823466,-1.607734 0,-0.785466 0.3916,-1.216133 1.450533,-1.686533 1.136933,0.275067 1.568667,0.3532 2.470267,0.3532 3.960933,0 6.705733,-2.588533 6.705733,-6.236 0,-1.567733 -0.470267,-2.901066 -1.451067,-4.156266 0.275067,-1.489467 0.862533,-2.1172 2.078133,-2.1172 0.275067,0 0.4708,0.03907 0.902667,0.1172 z m -8.3532,5.2552 c 1.7652,0 2.705734,1.333333 2.705734,3.803067 0,2.353199 -0.9796,3.725599 -2.705734,3.725599 -1.764,0 -2.7448,-1.333333 -2.7448,-3.686533 0,-2.469733 0.941734,-3.842133 2.7448,-3.842133 z m -2.666133,16.3516 c 1.176533,0.07907 1.3328,0.07907 3.254667,0.1572 2,0.07813 2.744799,0.156266 3.372399,0.509466 0.588,0.313467 0.940667,1.0192 0.940667,1.843733 0,1.764 -1.568267,2.666667 -4.587466,2.666667 -3.254667,0 -4.666134,-0.824533 -4.666134,-2.705733 0,-1.098 0.509867,-1.843733 1.685867,-2.471333 z M 58.057761,42.882799 v 19.331733 h 4 V 42.882799 z m 4.078667,-2.588533 v -4.275067 h -4.195867 v 4.275067 z m 4.626533,2.588533 v 19.331733 h 4 V 51.391599 c 0,-1.804667 0.03907,-2.430666 0.274,-3.294266 0.1568,-0.549467 0.3536,-1.0192 0.666666,-1.450534 0.4708,-0.666666 1.2552,-1.0192 2.195867,-1.0192 1.2552,0 1.960933,0.547867 2.1568,1.724934 0.118133,0.666666 0.1572,1.2152 0.1572,2.627599 v 12.2344 h 4 V 49.744799 c 0,-2.236 -0.03907,-2.9808 -0.274934,-3.921866 -0.1568,-0.7448 -0.509866,-1.450534 -1.019333,-2 -0.862933,-0.940134 -2.1172,-1.411467 -3.6468,-1.411467 -2.392266,0 -3.803733,0.980133 -4.823466,3.450533 v -2.9792 z m 32.076662,10.273467 c -0.0391,-4.078134 -0.27453,-5.2152 -1.412,-7.3724 -1.098,-2.1172 -3.29373,-3.3724 -5.88173,-3.3724 -4.784399,0 -7.685999,3.921867 -7.685999,10.430666 0,6.275067 2.783866,9.8428 7.646399,9.8428 3.88227,0 6.19573,-2 7.17653,-6.1172 l -3.6084,-0.509466 c -0.62653,2.626666 -1.56813,3.6068 -3.41146,3.6068 -1.72494,0 -3.019203,-1.1364 -3.450403,-3.0192 -0.235466,-1.098 -0.274533,-1.6068 -0.274533,-3.4896 z m -4.03906,-2.705734 h -6.783869 c 0.195866,-3.333333 1.411466,-5.097999 3.411469,-5.097999 2.1568,0 3.3724,1.764666 3.3724,5.019866 z m 21.410397,2.705734 c -0.0391,-4.078134 -0.27454,-5.2152 -1.41147,-7.3724 -1.0984,-2.1172 -3.29427,-3.3724 -5.88227,-3.3724 -4.78386,0 -7.68546,3.921867 -7.68546,10.430666 0,6.275067 2.78386,9.8428 7.6464,9.8428 3.88226,0 6.19573,-2 7.17546,-6.1172 l -3.60733,-0.509466 c -0.6276,2.626666 -1.56813,3.6068 -3.41147,3.6068 -1.72493,0 -3.0192,-1.1364 -3.45093,-3.0192 -0.23493,-1.098 -0.274,-1.6068 -0.274,-3.4896 z m -4.03907,-2.705734 h -6.78386 c 0.19587,-3.333333 1.412,-5.097999 3.41146,-5.097999 2.1568,0 3.3724,1.764666 3.3724,5.019866 z m 7.37241,-7.567733 v 19.331733 h 3.99893 v -9.842133 c 0,-3.764666 1.49067,-5.764666 4.27507,-5.764666 0.2348,0 0.3916,0.03907 0.78372,0.07813 V 42.52973 c -0.35305,-0.04013 -0.46972,-0.0792 -0.74479,-0.0792 -1.01921,0 -2.03893,0.471333 -2.86241,1.294266 -0.90213,0.862934 -1.29426,1.607734 -1.92133,3.450534 v -4.312534 z m 10.70467,0 v 19.331733 h 3.99999 V 42.882799 z m 4.07812,-2.588533 v -4.275067 h -4.19587 v 4.275067 z m 4.62747,2.588533 v 19.331733 h 4 V 51.391599 c 0,-1.804667 0.0387,-2.430666 0.27466,-3.294266 0.156,-0.549467 0.352,-1.0192 0.66667,-1.450534 0.47067,-0.666666 1.25467,-1.0192 2.196,-1.0192 1.25467,0 1.96,0.547867 2.156,1.724934 0.11733,0.666666 0.15733,1.2152 0.15733,2.627599 v 12.2344 h 4 V 49.744799 c 0,-2.236 -0.04,-2.9808 -0.27466,-3.921866 -0.15734,-0.7448 -0.50934,-1.450534 -1.02,-2 -0.86267,-0.940134 -2.11734,-1.411467 -3.64667,-1.411467 -2.392,0 -3.804,0.980133 -4.824,3.450533 v -2.9792 z m 33.05733,-3.098933 c -0.588,-0.07813 -0.824,-0.07813 -1.216,-0.07813 -2.19467,0 -3.13733,0.902 -3.568,3.568666 -1.52933,-0.7056 -2.196,-0.862933 -3.68667,-0.862933 -4.04,0 -6.784,2.588533 -6.784,6.352533 0,2.275067 0.70534,3.647467 2.51067,4.941733 -2,1.0192 -2.86267,2.195334 -2.86267,3.8812 0,1.3724 0.588,2.275067 2.11734,3.177067 -2,0.705733 -2.824,1.8428 -2.824,3.7256 0,3.175466 2.74533,4.862 7.764,4.862 5.72533,0 8.82266,-2.1172 8.82266,-6 0,-2.3532 -1.09733,-3.96 -3.09733,-4.5876 -1.21467,-0.352533 -1.64667,-0.432267 -4.47067,-0.588533 l -2.03866,-0.1172 c -2.07734,-0.118134 -2.82267,-0.5104 -2.82267,-1.607734 0,-0.785466 0.39067,-1.216133 1.45067,-1.686533 1.136,0.275067 1.56801,0.3532 2.46934,0.3532 3.96133,0 6.70667,-2.588533 6.70667,-6.236 0,-1.567733 -0.47068,-2.901066 -1.452,-4.156266 0.276,-1.489467 0.86266,-2.1172 2.07866,-2.1172 0.27467,0 0.47067,0.03907 0.90267,0.1172 z m -8.352,5.2552 c 1.764,0 2.70533,1.333333 2.70533,3.803067 0,2.353199 -0.98133,3.725599 -2.70533,3.725599 -1.76533,0 -2.74667,-1.333333 -2.74667,-3.686533 0,-2.469733 0.94267,-3.842133 2.74667,-3.842133 z m -2.66667,16.3516 c 1.17467,0.07907 1.33334,0.07907 3.25334,0.1572 2,0.07813 2.74533,0.156266 3.372,0.509466 0.58933,0.313467 0.94266,1.0192 0.94266,1.843733 0,1.764 -1.56933,2.666667 -4.588,2.666667 -3.256,0 -4.66666,-0.824533 -4.66666,-2.705733 0,-1.098 0.51066,-1.843733 1.68666,-2.471333"
     id="path42"
     style="fill:#00458c;fill-opacity:1;fill-rule:nonzero;stroke:none" /></svg>